<svg width="18" height="18" viewBox="0 0 18 18" fill="none" xmlns="http://www.w3.org/2000/svg">
<path d="M2.09683 4.77789C3.25488 4.77789 4.19367 3.83911 4.19367 2.68106C4.19367 1.52301 3.25488 0.584229 2.09683 0.584229C0.938784 0.584229 0 1.52301 0 2.68106C0 3.83911 0.938784 4.77789 2.09683 4.77789Z" fill="white" fill-opacity="0.37"/>
<path d="M6.17515 6.36587V17.9991H9.7871V12.2462C9.7871 10.7282 10.0727 9.25812 11.9549 9.25812C13.8111 9.25812 13.8341 10.9937 13.8341 12.342V18H17.448V11.6204C17.448 8.48666 16.7734 6.07837 13.1106 6.07837C11.3521 6.07837 10.1733 7.04341 9.69127 7.9567H9.6424V6.36587H6.17515ZM0.289062 6.36587H3.90677V17.9991H0.289062V6.36587Z" fill="white" fill-opacity="0.37"/>
</svg>
