<svg width="21" height="20" viewBox="0 0 21 20" fill="none" xmlns="http://www.w3.org/2000/svg">
<path fill-rule="evenodd" clip-rule="evenodd" d="M6.25354 0H13.7535C17.2048 0 20.0035 2.79875 20.0035 6.25V13.75C20.0035 17.2013 17.2048 20 13.7535 20H6.25354C2.80229 20 0.00354004 17.2013 0.00354004 13.75V6.25C0.00354004 2.79875 2.80229 0 6.25354 0ZM13.7535 18.125C16.166 18.125 18.1285 16.1625 18.1285 13.75V6.25C18.1285 3.8375 16.166 1.875 13.7535 1.875H6.25354C3.84104 1.875 1.87854 3.8375 1.87854 6.25V13.75C1.87854 16.1625 3.84104 18.125 6.25354 18.125H13.7535Z" fill="white" fill-opacity="0.37"/>
<path fill-rule="evenodd" clip-rule="evenodd" d="M5.00354 10C5.00354 7.23875 7.24229 5 10.0035 5C12.7648 5 15.0035 7.23875 15.0035 10C15.0035 12.7613 12.7648 15 10.0035 15C7.24229 15 5.00354 12.7613 5.00354 10ZM6.87854 10C6.87854 11.7225 8.28104 13.125 10.0035 13.125C11.726 13.125 13.1285 11.7225 13.1285 10C13.1285 8.27625 11.726 6.875 10.0035 6.875C8.28104 6.875 6.87854 8.27625 6.87854 10Z" fill="white" fill-opacity="0.37"/>
<circle cx="15.3807" cy="4.62523" r="0.66625" fill="white" fill-opacity="0.37"/>
</svg>
