<svg width="20" height="20" viewBox="0 0 20 20" fill="none" xmlns="http://www.w3.org/2000/svg">
<path d="M16.625 17.5C14.8333 17.5 13.0869 17.1006 11.3858 16.3017C9.68417 15.5033 8.17722 14.4478 6.865 13.135C5.55222 11.8228 4.49667 10.3158 3.69833 8.61417C2.89944 6.91306 2.5 5.16667 2.5 3.375C2.5 3.125 2.58333 2.91667 2.75 2.75C2.91667 2.58333 3.125 2.5 3.375 2.5H6.75C6.94444 2.5 7.11806 2.5625 7.27083 2.6875C7.42361 2.8125 7.51389 2.97222 7.54167 3.16667L8.08333 6.08333C8.11111 6.27778 8.10778 6.45472 8.07333 6.61417C8.03833 6.77417 7.95833 6.91667 7.83333 7.04167L5.83333 9.08333C6.41667 10.0833 7.14583 11.0208 8.02083 11.8958C8.89583 12.7708 9.86111 13.5278 10.9167 14.1667L12.875 12.2083C13 12.0833 13.1633 11.9894 13.365 11.9267C13.5661 11.8644 13.7639 11.8472 13.9583 11.875L16.8333 12.4583C17.0278 12.5 17.1875 12.5936 17.3125 12.7392C17.4375 12.8853 17.5 13.0556 17.5 13.25V16.625C17.5 16.875 17.4167 17.0833 17.25 17.25C17.0833 17.4167 16.875 17.5 16.625 17.5Z" fill="white" fill-opacity="0.87"/>
</svg>
